<mxfile host="app.diagrams.net" modified="2024-06-27T18:15:50.007Z" agent="Mozilla/5.0 (Windows NT 10.0; Win64; x64) AppleWebKit/537.36 (KHTML, like Gecko) Chrome/126.0.0.0 Safari/537.36" etag="vlI3UsrgDjhGy4lPMzZL" version="24.6.4" type="device" pages="2">
  <diagram id="C5RBs43oDa-KdzZeNtuy" name="Page-1">
    <mxGraphModel dx="2181" dy="1769" grid="1" gridSize="10" guides="1" tooltips="1" connect="1" arrows="1" fold="1" page="1" pageScale="1" pageWidth="827" pageHeight="1169" math="0" shadow="0">
      <root>
        <mxCell id="WIyWlLk6GJQsqaUBKTNV-0" />
        <mxCell id="WIyWlLk6GJQsqaUBKTNV-1" parent="WIyWlLk6GJQsqaUBKTNV-0" />
        <mxCell id="1226NSitTeE5jpYCy0Gn-8" style="edgeStyle=orthogonalEdgeStyle;rounded=0;orthogonalLoop=1;jettySize=auto;html=1;exitX=0.75;exitY=1;exitDx=0;exitDy=0;" parent="WIyWlLk6GJQsqaUBKTNV-1" edge="1">
          <mxGeometry relative="1" as="geometry">
            <mxPoint x="250" y="310" as="targetPoint" />
            <mxPoint x="250" y="310" as="sourcePoint" />
          </mxGeometry>
        </mxCell>
        <mxCell id="1226NSitTeE5jpYCy0Gn-27" style="edgeStyle=orthogonalEdgeStyle;rounded=0;orthogonalLoop=1;jettySize=auto;html=1;exitX=1;exitY=0.5;exitDx=0;exitDy=0;entryX=0;entryY=0.5;entryDx=0;entryDy=0;" parent="WIyWlLk6GJQsqaUBKTNV-1" edge="1">
          <mxGeometry relative="1" as="geometry">
            <mxPoint x="130" y="520" as="sourcePoint" />
          </mxGeometry>
        </mxCell>
        <mxCell id="1226NSitTeE5jpYCy0Gn-28" style="edgeStyle=orthogonalEdgeStyle;rounded=0;orthogonalLoop=1;jettySize=auto;html=1;exitX=1;exitY=1;exitDx=0;exitDy=0;" parent="WIyWlLk6GJQsqaUBKTNV-1" edge="1">
          <mxGeometry relative="1" as="geometry">
            <mxPoint x="110" y="540" as="sourcePoint" />
          </mxGeometry>
        </mxCell>
        <mxCell id="1226NSitTeE5jpYCy0Gn-49" style="edgeStyle=orthogonalEdgeStyle;rounded=0;orthogonalLoop=1;jettySize=auto;html=1;exitX=0.686;exitY=0.184;exitDx=0;exitDy=0;entryX=0;entryY=0.75;entryDx=0;entryDy=0;exitPerimeter=0;" parent="WIyWlLk6GJQsqaUBKTNV-1" edge="1">
          <mxGeometry relative="1" as="geometry">
            <Array as="points">
              <mxPoint x="335" y="580" />
              <mxPoint x="390" y="580" />
              <mxPoint x="390" y="533" />
            </Array>
            <mxPoint x="500" y="532.5" as="targetPoint" />
          </mxGeometry>
        </mxCell>
        <mxCell id="1226NSitTeE5jpYCy0Gn-37" style="edgeStyle=orthogonalEdgeStyle;rounded=0;orthogonalLoop=1;jettySize=auto;html=1;exitX=0.5;exitY=1;exitDx=0;exitDy=0;" parent="WIyWlLk6GJQsqaUBKTNV-1" edge="1">
          <mxGeometry relative="1" as="geometry">
            <mxPoint x="260" y="560" as="sourcePoint" />
            <mxPoint x="260" y="560" as="targetPoint" />
          </mxGeometry>
        </mxCell>
        <mxCell id="1226NSitTeE5jpYCy0Gn-59" value="Tecnico" style="rhombus;whiteSpace=wrap;html=1;" parent="WIyWlLk6GJQsqaUBKTNV-1" vertex="1">
          <mxGeometry x="161" y="80" width="80" height="80" as="geometry" />
        </mxCell>
        <mxCell id="9XP385qsoO7HJBSUw2Q--2" style="edgeStyle=orthogonalEdgeStyle;rounded=0;orthogonalLoop=1;jettySize=auto;html=1;" parent="WIyWlLk6GJQsqaUBKTNV-1" source="1226NSitTeE5jpYCy0Gn-59" edge="1">
          <mxGeometry relative="1" as="geometry">
            <mxPoint x="120" y="320" as="targetPoint" />
            <mxPoint x="170" y="230" as="sourcePoint" />
            <Array as="points">
              <mxPoint x="180" y="320" />
            </Array>
          </mxGeometry>
        </mxCell>
        <mxCell id="1226NSitTeE5jpYCy0Gn-73" value="tecCNPJ" style="rounded=0;whiteSpace=wrap;html=1;" parent="WIyWlLk6GJQsqaUBKTNV-1" vertex="1">
          <mxGeometry x="321" y="105" width="120" height="30" as="geometry" />
        </mxCell>
        <mxCell id="9XP385qsoO7HJBSUw2Q--1" style="edgeStyle=orthogonalEdgeStyle;rounded=0;orthogonalLoop=1;jettySize=auto;html=1;" parent="WIyWlLk6GJQsqaUBKTNV-1" edge="1">
          <mxGeometry relative="1" as="geometry">
            <mxPoint x="240" y="120" as="sourcePoint" />
            <mxPoint x="320" y="120" as="targetPoint" />
            <Array as="points">
              <mxPoint x="290" y="120" />
              <mxPoint x="290" y="120" />
            </Array>
          </mxGeometry>
        </mxCell>
        <mxCell id="9XP385qsoO7HJBSUw2Q--3" value="tecLocal" style="rounded=0;whiteSpace=wrap;html=1;" parent="WIyWlLk6GJQsqaUBKTNV-1" vertex="1">
          <mxGeometry x="-1" y="302" width="120" height="30" as="geometry" />
        </mxCell>
        <mxCell id="9XP385qsoO7HJBSUw2Q--5" value="tecEmpresa" style="rounded=0;whiteSpace=wrap;html=1;" parent="WIyWlLk6GJQsqaUBKTNV-1" vertex="1">
          <mxGeometry x="321" y="302" width="120" height="30" as="geometry" />
        </mxCell>
        <mxCell id="9XP385qsoO7HJBSUw2Q--6" style="edgeStyle=orthogonalEdgeStyle;rounded=0;orthogonalLoop=1;jettySize=auto;html=1;" parent="WIyWlLk6GJQsqaUBKTNV-1" edge="1">
          <mxGeometry relative="1" as="geometry">
            <mxPoint x="160" y="120" as="sourcePoint" />
            <mxPoint x="80" y="120" as="targetPoint" />
            <Array as="points">
              <mxPoint x="80" y="120" />
            </Array>
          </mxGeometry>
        </mxCell>
        <mxCell id="9XP385qsoO7HJBSUw2Q--8" value="tecNome" style="rounded=0;whiteSpace=wrap;html=1;" parent="WIyWlLk6GJQsqaUBKTNV-1" vertex="1">
          <mxGeometry x="-40" y="105" width="120" height="30" as="geometry" />
        </mxCell>
        <mxCell id="9XP385qsoO7HJBSUw2Q--12" style="edgeStyle=orthogonalEdgeStyle;rounded=0;orthogonalLoop=1;jettySize=auto;html=1;" parent="WIyWlLk6GJQsqaUBKTNV-1" edge="1">
          <mxGeometry relative="1" as="geometry">
            <mxPoint x="320" y="320" as="targetPoint" />
            <mxPoint x="221" y="140" as="sourcePoint" />
            <Array as="points">
              <mxPoint x="221" y="321" />
            </Array>
          </mxGeometry>
        </mxCell>
        <mxCell id="9XP385qsoO7HJBSUw2Q--13" value="" style="endArrow=classic;html=1;rounded=0;exitX=0.5;exitY=0;exitDx=0;exitDy=0;" parent="WIyWlLk6GJQsqaUBKTNV-1" source="1226NSitTeE5jpYCy0Gn-59" edge="1">
          <mxGeometry width="50" height="50" relative="1" as="geometry">
            <mxPoint x="200.5" as="sourcePoint" />
            <mxPoint x="200.5" y="-40" as="targetPoint" />
            <Array as="points">
              <mxPoint x="200.5" y="-30" />
            </Array>
          </mxGeometry>
        </mxCell>
        <mxCell id="9XP385qsoO7HJBSUw2Q--14" value="tecDocumento" style="rounded=0;whiteSpace=wrap;html=1;" parent="WIyWlLk6GJQsqaUBKTNV-1" vertex="1">
          <mxGeometry x="141" y="-71" width="120" height="30" as="geometry" />
        </mxCell>
        <mxCell id="9XP385qsoO7HJBSUw2Q--15" value="connectTec" style="rhombus;whiteSpace=wrap;html=1;" parent="WIyWlLk6GJQsqaUBKTNV-1" vertex="1">
          <mxGeometry x="721" y="80" width="80" height="80" as="geometry" />
        </mxCell>
        <mxCell id="9XP385qsoO7HJBSUw2Q--17" value="cntTecnico" style="rounded=0;whiteSpace=wrap;html=1;" parent="WIyWlLk6GJQsqaUBKTNV-1" vertex="1">
          <mxGeometry x="520" y="105" width="120" height="30" as="geometry" />
        </mxCell>
        <mxCell id="9XP385qsoO7HJBSUw2Q--18" style="edgeStyle=orthogonalEdgeStyle;rounded=0;orthogonalLoop=1;jettySize=auto;html=1;exitX=0;exitY=0.5;exitDx=0;exitDy=0;" parent="WIyWlLk6GJQsqaUBKTNV-1" source="9XP385qsoO7HJBSUw2Q--15" edge="1">
          <mxGeometry relative="1" as="geometry">
            <mxPoint x="611" y="130" as="sourcePoint" />
            <mxPoint x="641" y="120" as="targetPoint" />
            <Array as="points">
              <mxPoint x="641" y="120" />
            </Array>
          </mxGeometry>
        </mxCell>
        <mxCell id="J_r5qr1-DXZXsxWHk4NO-1" style="edgeStyle=orthogonalEdgeStyle;rounded=0;orthogonalLoop=1;jettySize=auto;html=1;exitX=1;exitY=0.5;exitDx=0;exitDy=0;" parent="WIyWlLk6GJQsqaUBKTNV-1" source="9XP385qsoO7HJBSUw2Q--15" edge="1">
          <mxGeometry relative="1" as="geometry">
            <mxPoint x="821" y="110" as="sourcePoint" />
            <mxPoint x="881" y="120" as="targetPoint" />
            <Array as="points">
              <mxPoint x="851" y="120" />
              <mxPoint x="851" y="120" />
            </Array>
          </mxGeometry>
        </mxCell>
        <mxCell id="J_r5qr1-DXZXsxWHk4NO-2" value="cntEmpresa" style="rounded=0;whiteSpace=wrap;html=1;" parent="WIyWlLk6GJQsqaUBKTNV-1" vertex="1">
          <mxGeometry x="882" y="105" width="120" height="30" as="geometry" />
        </mxCell>
        <mxCell id="J_r5qr1-DXZXsxWHk4NO-3" style="edgeStyle=orthogonalEdgeStyle;rounded=0;orthogonalLoop=1;jettySize=auto;html=1;exitX=0.5;exitY=1;exitDx=0;exitDy=0;" parent="WIyWlLk6GJQsqaUBKTNV-1" source="9XP385qsoO7HJBSUw2Q--15" edge="1">
          <mxGeometry relative="1" as="geometry">
            <mxPoint x="731" y="190" as="sourcePoint" />
            <mxPoint x="761" y="240" as="targetPoint" />
            <Array as="points">
              <mxPoint x="761" y="230" />
            </Array>
          </mxGeometry>
        </mxCell>
        <mxCell id="J_r5qr1-DXZXsxWHk4NO-4" value="cntProduto" style="rounded=0;whiteSpace=wrap;html=1;" parent="WIyWlLk6GJQsqaUBKTNV-1" vertex="1">
          <mxGeometry x="701" y="241" width="120" height="30" as="geometry" />
        </mxCell>
        <mxCell id="J_r5qr1-DXZXsxWHk4NO-5" style="edgeStyle=orthogonalEdgeStyle;rounded=0;orthogonalLoop=1;jettySize=auto;html=1;exitX=0.5;exitY=0;exitDx=0;exitDy=0;" parent="WIyWlLk6GJQsqaUBKTNV-1" source="9XP385qsoO7HJBSUw2Q--15" edge="1">
          <mxGeometry relative="1" as="geometry">
            <mxPoint x="760.5" y="-10" as="sourcePoint" />
            <mxPoint x="761" as="targetPoint" />
            <Array as="points">
              <mxPoint x="761" y="60" />
            </Array>
          </mxGeometry>
        </mxCell>
        <mxCell id="J_r5qr1-DXZXsxWHk4NO-6" value="cntTipo" style="rounded=0;whiteSpace=wrap;html=1;" parent="WIyWlLk6GJQsqaUBKTNV-1" vertex="1">
          <mxGeometry x="701" y="-30" width="120" height="30" as="geometry" />
        </mxCell>
        <mxCell id="J_r5qr1-DXZXsxWHk4NO-7" value="tblLocal" style="rhombus;whiteSpace=wrap;html=1;" parent="WIyWlLk6GJQsqaUBKTNV-1" vertex="1">
          <mxGeometry x="719" y="360" width="80" height="80" as="geometry" />
        </mxCell>
        <mxCell id="J_r5qr1-DXZXsxWHk4NO-8" value="" style="endArrow=classic;html=1;rounded=0;exitX=0;exitY=0.5;exitDx=0;exitDy=0;" parent="WIyWlLk6GJQsqaUBKTNV-1" source="J_r5qr1-DXZXsxWHk4NO-7" edge="1">
          <mxGeometry width="50" height="50" relative="1" as="geometry">
            <mxPoint x="639" y="440" as="sourcePoint" />
            <mxPoint x="639" y="400" as="targetPoint" />
          </mxGeometry>
        </mxCell>
        <mxCell id="J_r5qr1-DXZXsxWHk4NO-9" value="lclCidade" style="rounded=0;whiteSpace=wrap;html=1;" parent="WIyWlLk6GJQsqaUBKTNV-1" vertex="1">
          <mxGeometry x="520" y="385" width="120" height="30" as="geometry" />
        </mxCell>
        <mxCell id="J_r5qr1-DXZXsxWHk4NO-10" value="" style="endArrow=classic;html=1;rounded=0;exitX=1;exitY=0.5;exitDx=0;exitDy=0;" parent="WIyWlLk6GJQsqaUBKTNV-1" source="J_r5qr1-DXZXsxWHk4NO-7" edge="1">
          <mxGeometry width="50" height="50" relative="1" as="geometry">
            <mxPoint x="900" y="415" as="sourcePoint" />
            <mxPoint x="879" y="400" as="targetPoint" />
          </mxGeometry>
        </mxCell>
        <mxCell id="J_r5qr1-DXZXsxWHk4NO-11" value="lclNome" style="rounded=0;whiteSpace=wrap;html=1;" parent="WIyWlLk6GJQsqaUBKTNV-1" vertex="1">
          <mxGeometry x="880" y="385" width="120" height="30" as="geometry" />
        </mxCell>
        <mxCell id="9-WXtbgqV0mpOAtFdXMK-0" value="" style="edgeStyle=orthogonalEdgeStyle;rounded=0;orthogonalLoop=1;jettySize=auto;html=1;" parent="WIyWlLk6GJQsqaUBKTNV-1" source="J_r5qr1-DXZXsxWHk4NO-12" target="J_r5qr1-DXZXsxWHk4NO-18" edge="1">
          <mxGeometry relative="1" as="geometry">
            <Array as="points">
              <mxPoint x="-400" y="180" />
              <mxPoint x="-400" y="180" />
            </Array>
          </mxGeometry>
        </mxCell>
        <mxCell id="J_r5qr1-DXZXsxWHk4NO-12" value="tblProduto" style="rhombus;whiteSpace=wrap;html=1;" parent="WIyWlLk6GJQsqaUBKTNV-1" vertex="1">
          <mxGeometry x="-440" y="40" width="80" height="80" as="geometry" />
        </mxCell>
        <mxCell id="J_r5qr1-DXZXsxWHk4NO-13" value="" style="endArrow=classic;html=1;rounded=0;exitX=1;exitY=0.5;exitDx=0;exitDy=0;" parent="WIyWlLk6GJQsqaUBKTNV-1" source="J_r5qr1-DXZXsxWHk4NO-12" edge="1">
          <mxGeometry width="50" height="50" relative="1" as="geometry">
            <mxPoint x="-350" y="80" as="sourcePoint" />
            <mxPoint x="-280" y="80" as="targetPoint" />
          </mxGeometry>
        </mxCell>
        <mxCell id="J_r5qr1-DXZXsxWHk4NO-14" value="prdTipo" style="rounded=0;whiteSpace=wrap;html=1;" parent="WIyWlLk6GJQsqaUBKTNV-1" vertex="1">
          <mxGeometry x="-280" y="65" width="120" height="30" as="geometry" />
        </mxCell>
        <mxCell id="J_r5qr1-DXZXsxWHk4NO-15" value="" style="endArrow=classic;html=1;rounded=0;exitX=0;exitY=0.5;exitDx=0;exitDy=0;" parent="WIyWlLk6GJQsqaUBKTNV-1" source="J_r5qr1-DXZXsxWHk4NO-12" edge="1">
          <mxGeometry width="50" height="50" relative="1" as="geometry">
            <mxPoint x="-530" y="95" as="sourcePoint" />
            <mxPoint x="-520" y="80" as="targetPoint" />
          </mxGeometry>
        </mxCell>
        <mxCell id="J_r5qr1-DXZXsxWHk4NO-16" value="prdNome" style="rounded=0;whiteSpace=wrap;html=1;" parent="WIyWlLk6GJQsqaUBKTNV-1" vertex="1">
          <mxGeometry x="-640" y="65" width="120" height="30" as="geometry" />
        </mxCell>
        <mxCell id="J_r5qr1-DXZXsxWHk4NO-18" value="prdModelo" style="rounded=0;whiteSpace=wrap;html=1;" parent="WIyWlLk6GJQsqaUBKTNV-1" vertex="1">
          <mxGeometry x="-459" y="200" width="120" height="30" as="geometry" />
        </mxCell>
        <mxCell id="J_r5qr1-DXZXsxWHk4NO-19" value="" style="endArrow=classic;html=1;rounded=0;" parent="WIyWlLk6GJQsqaUBKTNV-1" edge="1">
          <mxGeometry width="50" height="50" relative="1" as="geometry">
            <mxPoint x="-419" y="58" as="sourcePoint" />
            <mxPoint x="-480" as="targetPoint" />
            <Array as="points">
              <mxPoint x="-419" />
            </Array>
          </mxGeometry>
        </mxCell>
        <mxCell id="J_r5qr1-DXZXsxWHk4NO-20" value="prdDtFrabricacao" style="rounded=0;whiteSpace=wrap;html=1;" parent="WIyWlLk6GJQsqaUBKTNV-1" vertex="1">
          <mxGeometry x="-621" y="241" width="120" height="30" as="geometry" />
        </mxCell>
        <mxCell id="J_r5qr1-DXZXsxWHk4NO-21" value="" style="endArrow=classic;html=1;rounded=0;" parent="WIyWlLk6GJQsqaUBKTNV-1" edge="1">
          <mxGeometry width="50" height="50" relative="1" as="geometry">
            <mxPoint x="-390" y="109" as="sourcePoint" />
            <mxPoint x="-280" y="240" as="targetPoint" />
            <Array as="points">
              <mxPoint x="-390" y="160" />
              <mxPoint x="-280" y="160" />
            </Array>
          </mxGeometry>
        </mxCell>
        <mxCell id="J_r5qr1-DXZXsxWHk4NO-22" value="prdOrservacao" style="rounded=0;whiteSpace=wrap;html=1;" parent="WIyWlLk6GJQsqaUBKTNV-1" vertex="1">
          <mxGeometry x="-340" y="240" width="120" height="30" as="geometry" />
        </mxCell>
        <mxCell id="9-WXtbgqV0mpOAtFdXMK-1" value="" style="endArrow=classic;html=1;rounded=0;exitX=0.368;exitY=0.88;exitDx=0;exitDy=0;exitPerimeter=0;" parent="WIyWlLk6GJQsqaUBKTNV-1" source="J_r5qr1-DXZXsxWHk4NO-12" edge="1">
          <mxGeometry width="50" height="50" relative="1" as="geometry">
            <mxPoint x="-410" y="120" as="sourcePoint" />
            <mxPoint x="-560" y="240" as="targetPoint" />
            <Array as="points">
              <mxPoint x="-410" y="160" />
              <mxPoint x="-560" y="160" />
            </Array>
          </mxGeometry>
        </mxCell>
        <mxCell id="9-WXtbgqV0mpOAtFdXMK-2" value="prdCodigo" style="rounded=0;whiteSpace=wrap;html=1;" parent="WIyWlLk6GJQsqaUBKTNV-1" vertex="1">
          <mxGeometry x="-600" y="-16" width="120" height="30" as="geometry" />
        </mxCell>
        <mxCell id="9-WXtbgqV0mpOAtFdXMK-3" value="" style="endArrow=classic;html=1;rounded=0;" parent="WIyWlLk6GJQsqaUBKTNV-1" edge="1">
          <mxGeometry width="50" height="50" relative="1" as="geometry">
            <mxPoint x="-379" y="60" as="sourcePoint" />
            <mxPoint x="-320" as="targetPoint" />
            <Array as="points">
              <mxPoint x="-379" />
            </Array>
          </mxGeometry>
        </mxCell>
        <mxCell id="9-WXtbgqV0mpOAtFdXMK-6" value="prdMarca" style="rounded=0;whiteSpace=wrap;html=1;" parent="WIyWlLk6GJQsqaUBKTNV-1" vertex="1">
          <mxGeometry x="-320" y="-16" width="120" height="30" as="geometry" />
        </mxCell>
        <mxCell id="9-WXtbgqV0mpOAtFdXMK-7" value="tblCliente" style="rhombus;whiteSpace=wrap;html=1;" parent="WIyWlLk6GJQsqaUBKTNV-1" vertex="1">
          <mxGeometry x="-442" y="480" width="80" height="80" as="geometry" />
        </mxCell>
        <mxCell id="9-WXtbgqV0mpOAtFdXMK-8" value="" style="endArrow=classic;html=1;rounded=0;exitX=1;exitY=0.5;exitDx=0;exitDy=0;" parent="WIyWlLk6GJQsqaUBKTNV-1" source="9-WXtbgqV0mpOAtFdXMK-7" edge="1">
          <mxGeometry width="50" height="50" relative="1" as="geometry">
            <mxPoint x="-362" y="480" as="sourcePoint" />
            <mxPoint x="-242" y="520" as="targetPoint" />
          </mxGeometry>
        </mxCell>
        <mxCell id="9-WXtbgqV0mpOAtFdXMK-9" value="cliNome" style="rounded=0;whiteSpace=wrap;html=1;" parent="WIyWlLk6GJQsqaUBKTNV-1" vertex="1">
          <mxGeometry x="-241" y="505" width="120" height="30" as="geometry" />
        </mxCell>
        <mxCell id="9-WXtbgqV0mpOAtFdXMK-10" value="" style="endArrow=classic;html=1;rounded=0;exitX=0;exitY=0.5;exitDx=0;exitDy=0;" parent="WIyWlLk6GJQsqaUBKTNV-1" source="9-WXtbgqV0mpOAtFdXMK-7" edge="1">
          <mxGeometry width="50" height="50" relative="1" as="geometry">
            <mxPoint x="-452" y="520" as="sourcePoint" />
            <mxPoint x="-562" y="520" as="targetPoint" />
          </mxGeometry>
        </mxCell>
        <mxCell id="9-WXtbgqV0mpOAtFdXMK-11" value="cliTelefone" style="rounded=0;whiteSpace=wrap;html=1;" parent="WIyWlLk6GJQsqaUBKTNV-1" vertex="1">
          <mxGeometry x="-682" y="505" width="120" height="30" as="geometry" />
        </mxCell>
        <mxCell id="9-WXtbgqV0mpOAtFdXMK-12" value="" style="endArrow=classic;html=1;rounded=0;exitX=0.5;exitY=1;exitDx=0;exitDy=0;" parent="WIyWlLk6GJQsqaUBKTNV-1" edge="1">
          <mxGeometry width="50" height="50" relative="1" as="geometry">
            <mxPoint x="-412" y="550.0000000000005" as="sourcePoint" />
            <mxPoint x="-482" y="680" as="targetPoint" />
            <Array as="points">
              <mxPoint x="-412" y="640" />
              <mxPoint x="-412" y="680" />
            </Array>
          </mxGeometry>
        </mxCell>
        <mxCell id="9-WXtbgqV0mpOAtFdXMK-13" value="cliCPF" style="rounded=0;whiteSpace=wrap;html=1;" parent="WIyWlLk6GJQsqaUBKTNV-1" vertex="1">
          <mxGeometry x="-604" y="665" width="120" height="30" as="geometry" />
        </mxCell>
        <mxCell id="9-WXtbgqV0mpOAtFdXMK-14" value="" style="endArrow=classic;html=1;rounded=0;" parent="WIyWlLk6GJQsqaUBKTNV-1" edge="1">
          <mxGeometry width="50" height="50" relative="1" as="geometry">
            <mxPoint x="-402" y="480" as="sourcePoint" />
            <mxPoint x="-402" y="400" as="targetPoint" />
          </mxGeometry>
        </mxCell>
        <mxCell id="9-WXtbgqV0mpOAtFdXMK-15" value="cliRG" style="rounded=0;whiteSpace=wrap;html=1;" parent="WIyWlLk6GJQsqaUBKTNV-1" vertex="1">
          <mxGeometry x="-322" y="665" width="120" height="30" as="geometry" />
        </mxCell>
        <mxCell id="9-WXtbgqV0mpOAtFdXMK-16" value="" style="endArrow=classic;html=1;rounded=0;exitX=1;exitY=0;exitDx=0;exitDy=0;" parent="WIyWlLk6GJQsqaUBKTNV-1" source="9-WXtbgqV0mpOAtFdXMK-7" edge="1">
          <mxGeometry width="50" height="50" relative="1" as="geometry">
            <mxPoint x="-392" y="482" as="sourcePoint" />
            <mxPoint x="-242" y="440" as="targetPoint" />
            <Array as="points">
              <mxPoint x="-382" y="440" />
            </Array>
          </mxGeometry>
        </mxCell>
        <mxCell id="9-WXtbgqV0mpOAtFdXMK-17" value="cliTpServico" style="rounded=0;whiteSpace=wrap;html=1;" parent="WIyWlLk6GJQsqaUBKTNV-1" vertex="1">
          <mxGeometry x="-242" y="424" width="120" height="30" as="geometry" />
        </mxCell>
        <mxCell id="9-WXtbgqV0mpOAtFdXMK-18" value="" style="endArrow=classic;html=1;rounded=0;exitX=1;exitY=0;exitDx=0;exitDy=0;" parent="WIyWlLk6GJQsqaUBKTNV-1" edge="1">
          <mxGeometry width="50" height="50" relative="1" as="geometry">
            <mxPoint x="-422" y="500" as="sourcePoint" />
            <mxPoint x="-562" y="440" as="targetPoint" />
            <Array as="points">
              <mxPoint x="-422" y="440" />
            </Array>
          </mxGeometry>
        </mxCell>
        <mxCell id="9-WXtbgqV0mpOAtFdXMK-19" value="cliProdoto" style="rounded=0;whiteSpace=wrap;html=1;" parent="WIyWlLk6GJQsqaUBKTNV-1" vertex="1">
          <mxGeometry x="-682" y="425" width="120" height="30" as="geometry" />
        </mxCell>
        <mxCell id="9-WXtbgqV0mpOAtFdXMK-21" value="" style="endArrow=classic;html=1;rounded=0;exitX=1;exitY=1;exitDx=0;exitDy=0;" parent="WIyWlLk6GJQsqaUBKTNV-1" source="9-WXtbgqV0mpOAtFdXMK-7" edge="1">
          <mxGeometry width="50" height="50" relative="1" as="geometry">
            <mxPoint x="-382" y="550" as="sourcePoint" />
            <mxPoint x="-242" y="600" as="targetPoint" />
            <Array as="points">
              <mxPoint x="-382" y="600" />
            </Array>
          </mxGeometry>
        </mxCell>
        <mxCell id="9-WXtbgqV0mpOAtFdXMK-22" value="cliCidade" style="rounded=0;whiteSpace=wrap;html=1;" parent="WIyWlLk6GJQsqaUBKTNV-1" vertex="1">
          <mxGeometry x="-241" y="585" width="120" height="30" as="geometry" />
        </mxCell>
        <mxCell id="9-WXtbgqV0mpOAtFdXMK-23" value="" style="endArrow=classic;html=1;rounded=0;exitX=0;exitY=1;exitDx=0;exitDy=0;" parent="WIyWlLk6GJQsqaUBKTNV-1" source="9-WXtbgqV0mpOAtFdXMK-7" edge="1">
          <mxGeometry width="50" height="50" relative="1" as="geometry">
            <mxPoint x="-422" y="550" as="sourcePoint" />
            <mxPoint x="-562" y="600" as="targetPoint" />
            <Array as="points">
              <mxPoint x="-422" y="599" />
              <mxPoint x="-442" y="599" />
            </Array>
          </mxGeometry>
        </mxCell>
        <mxCell id="9-WXtbgqV0mpOAtFdXMK-24" value="cliEmail" style="rounded=0;whiteSpace=wrap;html=1;" parent="WIyWlLk6GJQsqaUBKTNV-1" vertex="1">
          <mxGeometry x="-682" y="585" width="120" height="30" as="geometry" />
        </mxCell>
        <mxCell id="9-WXtbgqV0mpOAtFdXMK-26" value="" style="endArrow=classic;html=1;rounded=0;exitX=0.5;exitY=1;exitDx=0;exitDy=0;" parent="WIyWlLk6GJQsqaUBKTNV-1" edge="1">
          <mxGeometry width="50" height="50" relative="1" as="geometry">
            <mxPoint x="-395" y="554.0000000000005" as="sourcePoint" />
            <mxPoint x="-322" y="680" as="targetPoint" />
            <Array as="points">
              <mxPoint x="-395" y="644" />
              <mxPoint x="-395" y="680" />
            </Array>
          </mxGeometry>
        </mxCell>
        <mxCell id="9-WXtbgqV0mpOAtFdXMK-27" value="cliPassword" style="rounded=0;whiteSpace=wrap;html=1;" parent="WIyWlLk6GJQsqaUBKTNV-1" vertex="1">
          <mxGeometry x="-462" y="370" width="120" height="30" as="geometry" />
        </mxCell>
        <mxCell id="9-WXtbgqV0mpOAtFdXMK-28" value="tblCidade" style="rhombus;whiteSpace=wrap;html=1;" parent="WIyWlLk6GJQsqaUBKTNV-1" vertex="1">
          <mxGeometry x="160" y="360" width="80" height="80" as="geometry" />
        </mxCell>
        <mxCell id="9-WXtbgqV0mpOAtFdXMK-29" value="" style="endArrow=classic;html=1;rounded=0;exitX=0;exitY=0.5;exitDx=0;exitDy=0;" parent="WIyWlLk6GJQsqaUBKTNV-1" edge="1">
          <mxGeometry width="50" height="50" relative="1" as="geometry">
            <mxPoint x="161" y="400" as="sourcePoint" />
            <mxPoint x="81" y="400" as="targetPoint" />
          </mxGeometry>
        </mxCell>
        <mxCell id="9-WXtbgqV0mpOAtFdXMK-30" value="cidNome" style="rounded=0;whiteSpace=wrap;html=1;" parent="WIyWlLk6GJQsqaUBKTNV-1" vertex="1">
          <mxGeometry x="-38" y="385" width="120" height="30" as="geometry" />
        </mxCell>
        <mxCell id="9-WXtbgqV0mpOAtFdXMK-31" value="" style="endArrow=classic;html=1;rounded=0;exitX=1;exitY=0.5;exitDx=0;exitDy=0;" parent="WIyWlLk6GJQsqaUBKTNV-1" source="9-WXtbgqV0mpOAtFdXMK-28" edge="1">
          <mxGeometry width="50" height="50" relative="1" as="geometry">
            <mxPoint x="300" y="424" as="sourcePoint" />
            <mxPoint x="320" y="400" as="targetPoint" />
          </mxGeometry>
        </mxCell>
        <mxCell id="9-WXtbgqV0mpOAtFdXMK-32" value="cidUf" style="rounded=0;whiteSpace=wrap;html=1;" parent="WIyWlLk6GJQsqaUBKTNV-1" vertex="1">
          <mxGeometry x="321" y="385" width="120" height="30" as="geometry" />
        </mxCell>
        <mxCell id="9-WXtbgqV0mpOAtFdXMK-33" value="tblTipo" style="rhombus;whiteSpace=wrap;html=1;" parent="WIyWlLk6GJQsqaUBKTNV-1" vertex="1">
          <mxGeometry x="520" y="199" width="80" height="80" as="geometry" />
        </mxCell>
        <mxCell id="9-WXtbgqV0mpOAtFdXMK-34" value="" style="endArrow=classic;html=1;rounded=0;exitX=0.5;exitY=1;exitDx=0;exitDy=0;" parent="WIyWlLk6GJQsqaUBKTNV-1" source="9-WXtbgqV0mpOAtFdXMK-33" edge="1">
          <mxGeometry width="50" height="50" relative="1" as="geometry">
            <mxPoint x="600" y="328" as="sourcePoint" />
            <mxPoint x="560" y="328" as="targetPoint" />
          </mxGeometry>
        </mxCell>
        <mxCell id="9-WXtbgqV0mpOAtFdXMK-35" value="tpNome" style="rounded=0;whiteSpace=wrap;html=1;" parent="WIyWlLk6GJQsqaUBKTNV-1" vertex="1">
          <mxGeometry x="501" y="328" width="120" height="30" as="geometry" />
        </mxCell>
        <mxCell id="9-WXtbgqV0mpOAtFdXMK-36" value="tblUf" style="rhombus;whiteSpace=wrap;html=1;" parent="WIyWlLk6GJQsqaUBKTNV-1" vertex="1">
          <mxGeometry x="159" y="598" width="80" height="80" as="geometry" />
        </mxCell>
        <mxCell id="9-WXtbgqV0mpOAtFdXMK-37" value="" style="endArrow=classic;html=1;rounded=0;" parent="WIyWlLk6GJQsqaUBKTNV-1" edge="1">
          <mxGeometry width="50" height="50" relative="1" as="geometry">
            <mxPoint x="198" y="598" as="sourcePoint" />
            <mxPoint x="198" y="518" as="targetPoint" />
          </mxGeometry>
        </mxCell>
        <mxCell id="9-WXtbgqV0mpOAtFdXMK-38" value="ufNome" style="rounded=0;whiteSpace=wrap;html=1;" parent="WIyWlLk6GJQsqaUBKTNV-1" vertex="1">
          <mxGeometry x="139" y="488" width="120" height="30" as="geometry" />
        </mxCell>
        <mxCell id="9-WXtbgqV0mpOAtFdXMK-39" value="" style="endArrow=classic;html=1;rounded=0;" parent="WIyWlLk6GJQsqaUBKTNV-1" edge="1">
          <mxGeometry width="50" height="50" relative="1" as="geometry">
            <mxPoint x="199" y="678" as="sourcePoint" />
            <mxPoint x="199" y="758" as="targetPoint" />
          </mxGeometry>
        </mxCell>
        <mxCell id="9-WXtbgqV0mpOAtFdXMK-40" value="ufSigla" style="rounded=0;whiteSpace=wrap;html=1;" parent="WIyWlLk6GJQsqaUBKTNV-1" vertex="1">
          <mxGeometry x="139" y="760" width="120" height="30" as="geometry" />
        </mxCell>
        <mxCell id="sWDT5Roi_d-fxYjsbPiU-0" value="tblOrdemServ" style="rhombus;whiteSpace=wrap;html=1;" parent="WIyWlLk6GJQsqaUBKTNV-1" vertex="1">
          <mxGeometry x="720" y="599" width="80" height="80" as="geometry" />
        </mxCell>
        <mxCell id="sWDT5Roi_d-fxYjsbPiU-1" value="" style="endArrow=classic;html=1;rounded=0;exitX=1;exitY=0.5;exitDx=0;exitDy=0;" parent="WIyWlLk6GJQsqaUBKTNV-1" edge="1">
          <mxGeometry width="50" height="50" relative="1" as="geometry">
            <mxPoint x="799" y="638.5" as="sourcePoint" />
            <mxPoint x="960" y="640" as="targetPoint" />
          </mxGeometry>
        </mxCell>
        <mxCell id="sWDT5Roi_d-fxYjsbPiU-2" value="" style="endArrow=classic;html=1;rounded=0;exitX=0;exitY=0.5;exitDx=0;exitDy=0;" parent="WIyWlLk6GJQsqaUBKTNV-1" edge="1">
          <mxGeometry width="50" height="50" relative="1" as="geometry">
            <mxPoint x="719" y="638.5" as="sourcePoint" />
            <mxPoint x="560" y="640" as="targetPoint" />
          </mxGeometry>
        </mxCell>
        <mxCell id="sWDT5Roi_d-fxYjsbPiU-3" value="osProduto" style="rounded=0;whiteSpace=wrap;html=1;" parent="WIyWlLk6GJQsqaUBKTNV-1" vertex="1">
          <mxGeometry x="960" y="625" width="120" height="30" as="geometry" />
        </mxCell>
        <mxCell id="sWDT5Roi_d-fxYjsbPiU-4" value="osTecnico" style="rounded=0;whiteSpace=wrap;html=1;" parent="WIyWlLk6GJQsqaUBKTNV-1" vertex="1">
          <mxGeometry x="439" y="625" width="120" height="30" as="geometry" />
        </mxCell>
        <mxCell id="sWDT5Roi_d-fxYjsbPiU-5" value="" style="endArrow=classic;html=1;rounded=0;" parent="WIyWlLk6GJQsqaUBKTNV-1" edge="1">
          <mxGeometry width="50" height="50" relative="1" as="geometry">
            <mxPoint x="740" y="618" as="sourcePoint" />
            <mxPoint x="680" y="520" as="targetPoint" />
            <Array as="points">
              <mxPoint x="680" y="618" />
            </Array>
          </mxGeometry>
        </mxCell>
        <mxCell id="sWDT5Roi_d-fxYjsbPiU-7" value="" style="endArrow=classic;html=1;rounded=0;" parent="WIyWlLk6GJQsqaUBKTNV-1" edge="1">
          <mxGeometry width="50" height="50" relative="1" as="geometry">
            <mxPoint x="760.5" y="679" as="sourcePoint" />
            <mxPoint x="760.5" y="759" as="targetPoint" />
          </mxGeometry>
        </mxCell>
        <mxCell id="sWDT5Roi_d-fxYjsbPiU-8" value="osNumeroDeSerie" style="rounded=0;whiteSpace=wrap;html=1;" parent="WIyWlLk6GJQsqaUBKTNV-1" vertex="1">
          <mxGeometry x="620" y="488" width="120" height="30" as="geometry" />
        </mxCell>
        <mxCell id="sWDT5Roi_d-fxYjsbPiU-9" value="osLocal" style="rounded=0;whiteSpace=wrap;html=1;" parent="WIyWlLk6GJQsqaUBKTNV-1" vertex="1">
          <mxGeometry x="700" y="760" width="120" height="30" as="geometry" />
        </mxCell>
        <mxCell id="sWDT5Roi_d-fxYjsbPiU-10" value="" style="endArrow=classic;html=1;rounded=0;" parent="WIyWlLk6GJQsqaUBKTNV-1" edge="1">
          <mxGeometry width="50" height="50" relative="1" as="geometry">
            <mxPoint x="780" y="659" as="sourcePoint" />
            <mxPoint x="920" y="720" as="targetPoint" />
            <Array as="points">
              <mxPoint x="780" y="720" />
            </Array>
          </mxGeometry>
        </mxCell>
        <mxCell id="sWDT5Roi_d-fxYjsbPiU-11" value="osServico" style="rounded=0;whiteSpace=wrap;html=1;" parent="WIyWlLk6GJQsqaUBKTNV-1" vertex="1">
          <mxGeometry x="920" y="706" width="120" height="30" as="geometry" />
        </mxCell>
        <mxCell id="sWDT5Roi_d-fxYjsbPiU-12" value="" style="endArrow=classic;html=1;rounded=0;" parent="WIyWlLk6GJQsqaUBKTNV-1" edge="1">
          <mxGeometry width="50" height="50" relative="1" as="geometry">
            <mxPoint x="742" y="661" as="sourcePoint" />
            <mxPoint x="622" y="720" as="targetPoint" />
            <Array as="points">
              <mxPoint x="742" y="720" />
              <mxPoint x="680" y="720" />
            </Array>
          </mxGeometry>
        </mxCell>
        <mxCell id="sWDT5Roi_d-fxYjsbPiU-13" value="osCliente" style="rounded=0;whiteSpace=wrap;html=1;" parent="WIyWlLk6GJQsqaUBKTNV-1" vertex="1">
          <mxGeometry x="501" y="705" width="120" height="30" as="geometry" />
        </mxCell>
        <mxCell id="sWDT5Roi_d-fxYjsbPiU-15" value="" style="endArrow=classic;html=1;rounded=0;" parent="WIyWlLk6GJQsqaUBKTNV-1" edge="1">
          <mxGeometry width="50" height="50" relative="1" as="geometry">
            <mxPoint x="781" y="620" as="sourcePoint" />
            <mxPoint x="840" y="520" as="targetPoint" />
            <Array as="points">
              <mxPoint x="840" y="620" />
            </Array>
          </mxGeometry>
        </mxCell>
        <mxCell id="sWDT5Roi_d-fxYjsbPiU-16" value="osObservacao" style="rounded=0;whiteSpace=wrap;html=1;" parent="WIyWlLk6GJQsqaUBKTNV-1" vertex="1">
          <mxGeometry x="781" y="488" width="120" height="30" as="geometry" />
        </mxCell>
        <mxCell id="sWDT5Roi_d-fxYjsbPiU-17" value="connectProduto" style="rhombus;whiteSpace=wrap;html=1;" parent="WIyWlLk6GJQsqaUBKTNV-1" vertex="1">
          <mxGeometry x="-441" y="879" width="80" height="80" as="geometry" />
        </mxCell>
        <mxCell id="sWDT5Roi_d-fxYjsbPiU-18" value="" style="endArrow=classic;html=1;rounded=0;" parent="WIyWlLk6GJQsqaUBKTNV-1" edge="1">
          <mxGeometry width="50" height="50" relative="1" as="geometry">
            <mxPoint x="-400.5" y="879" as="sourcePoint" />
            <mxPoint x="-400" y="760" as="targetPoint" />
          </mxGeometry>
        </mxCell>
        <mxCell id="sWDT5Roi_d-fxYjsbPiU-19" value="" style="endArrow=classic;html=1;rounded=0;" parent="WIyWlLk6GJQsqaUBKTNV-1" edge="1">
          <mxGeometry width="50" height="50" relative="1" as="geometry">
            <mxPoint x="-400.5" y="959" as="sourcePoint" />
            <mxPoint x="-400" y="1080" as="targetPoint" />
          </mxGeometry>
        </mxCell>
        <mxCell id="sWDT5Roi_d-fxYjsbPiU-20" value="" style="endArrow=classic;html=1;rounded=0;exitX=0;exitY=0.5;exitDx=0;exitDy=0;" parent="WIyWlLk6GJQsqaUBKTNV-1" edge="1">
          <mxGeometry width="50" height="50" relative="1" as="geometry">
            <mxPoint x="-440" y="918.5" as="sourcePoint" />
            <mxPoint x="-560" y="919" as="targetPoint" />
          </mxGeometry>
        </mxCell>
        <mxCell id="sWDT5Roi_d-fxYjsbPiU-21" value="" style="endArrow=classic;html=1;rounded=0;exitX=1;exitY=0.5;exitDx=0;exitDy=0;" parent="WIyWlLk6GJQsqaUBKTNV-1" edge="1">
          <mxGeometry width="50" height="50" relative="1" as="geometry">
            <mxPoint x="-360" y="918.5" as="sourcePoint" />
            <mxPoint x="-240" y="919" as="targetPoint" />
          </mxGeometry>
        </mxCell>
        <mxCell id="sWDT5Roi_d-fxYjsbPiU-22" value="copProduto" style="rounded=0;whiteSpace=wrap;html=1;" parent="WIyWlLk6GJQsqaUBKTNV-1" vertex="1">
          <mxGeometry x="-239" y="904" width="120" height="30" as="geometry" />
        </mxCell>
        <mxCell id="sWDT5Roi_d-fxYjsbPiU-23" value="copMarca" style="rounded=0;whiteSpace=wrap;html=1;" parent="WIyWlLk6GJQsqaUBKTNV-1" vertex="1">
          <mxGeometry x="-681" y="904" width="120" height="30" as="geometry" />
        </mxCell>
        <mxCell id="sWDT5Roi_d-fxYjsbPiU-24" value="copFiliada" style="rounded=0;whiteSpace=wrap;html=1;" parent="WIyWlLk6GJQsqaUBKTNV-1" vertex="1">
          <mxGeometry x="-460" y="731" width="120" height="30" as="geometry" />
        </mxCell>
        <mxCell id="sWDT5Roi_d-fxYjsbPiU-25" value="copTipo" style="rounded=0;whiteSpace=wrap;html=1;" parent="WIyWlLk6GJQsqaUBKTNV-1" vertex="1">
          <mxGeometry x="-461" y="1080" width="120" height="30" as="geometry" />
        </mxCell>
        <mxCell id="sWDT5Roi_d-fxYjsbPiU-29" value="" style="endArrow=classic;html=1;rounded=0;exitX=1;exitY=0.5;exitDx=0;exitDy=0;" parent="WIyWlLk6GJQsqaUBKTNV-1" source="sWDT5Roi_d-fxYjsbPiU-33" edge="1">
          <mxGeometry width="50" height="50" relative="1" as="geometry">
            <mxPoint x="318" y="960" as="sourcePoint" />
            <mxPoint x="438" y="1000" as="targetPoint" />
          </mxGeometry>
        </mxCell>
        <mxCell id="sWDT5Roi_d-fxYjsbPiU-30" value="" style="endArrow=classic;html=1;rounded=0;exitX=1;exitY=0;exitDx=0;exitDy=0;" parent="WIyWlLk6GJQsqaUBKTNV-1" source="sWDT5Roi_d-fxYjsbPiU-33" edge="1">
          <mxGeometry width="50" height="50" relative="1" as="geometry">
            <mxPoint x="288" y="962" as="sourcePoint" />
            <mxPoint x="438" y="920" as="targetPoint" />
            <Array as="points">
              <mxPoint x="298" y="920" />
            </Array>
          </mxGeometry>
        </mxCell>
        <mxCell id="sWDT5Roi_d-fxYjsbPiU-31" value="" style="endArrow=classic;html=1;rounded=0;" parent="WIyWlLk6GJQsqaUBKTNV-1" edge="1">
          <mxGeometry width="50" height="50" relative="1" as="geometry">
            <mxPoint x="278" y="960" as="sourcePoint" />
            <mxPoint x="278" y="880" as="targetPoint" />
          </mxGeometry>
        </mxCell>
        <mxCell id="sWDT5Roi_d-fxYjsbPiU-32" value="" style="endArrow=classic;html=1;rounded=0;exitX=1;exitY=0;exitDx=0;exitDy=0;" parent="WIyWlLk6GJQsqaUBKTNV-1" edge="1">
          <mxGeometry width="50" height="50" relative="1" as="geometry">
            <mxPoint x="258" y="980" as="sourcePoint" />
            <mxPoint x="118" y="920" as="targetPoint" />
            <Array as="points">
              <mxPoint x="258" y="920" />
            </Array>
          </mxGeometry>
        </mxCell>
        <mxCell id="sWDT5Roi_d-fxYjsbPiU-33" value="tblEmpresa" style="rhombus;whiteSpace=wrap;html=1;" parent="WIyWlLk6GJQsqaUBKTNV-1" vertex="1">
          <mxGeometry x="238" y="960" width="80" height="80" as="geometry" />
        </mxCell>
        <mxCell id="sWDT5Roi_d-fxYjsbPiU-34" value="empAfiliadas" style="rounded=0;whiteSpace=wrap;html=1;" parent="WIyWlLk6GJQsqaUBKTNV-1" vertex="1">
          <mxGeometry x="439" y="985" width="120" height="30" as="geometry" />
        </mxCell>
        <mxCell id="sWDT5Roi_d-fxYjsbPiU-35" value="empDono" style="rounded=0;whiteSpace=wrap;html=1;" parent="WIyWlLk6GJQsqaUBKTNV-1" vertex="1">
          <mxGeometry x="438" y="904" width="120" height="30" as="geometry" />
        </mxCell>
        <mxCell id="sWDT5Roi_d-fxYjsbPiU-36" value="empLocal" style="rounded=0;whiteSpace=wrap;html=1;" parent="WIyWlLk6GJQsqaUBKTNV-1" vertex="1">
          <mxGeometry x="218" y="850" width="120" height="30" as="geometry" />
        </mxCell>
        <mxCell id="sWDT5Roi_d-fxYjsbPiU-37" value="empDescricao" style="rounded=0;whiteSpace=wrap;html=1;" parent="WIyWlLk6GJQsqaUBKTNV-1" vertex="1">
          <mxGeometry x="-2" y="985" width="120" height="30" as="geometry" />
        </mxCell>
        <mxCell id="sWDT5Roi_d-fxYjsbPiU-38" value="empNome" style="rounded=0;whiteSpace=wrap;html=1;" parent="WIyWlLk6GJQsqaUBKTNV-1" vertex="1">
          <mxGeometry x="-2" y="905" width="120" height="30" as="geometry" />
        </mxCell>
        <mxCell id="sWDT5Roi_d-fxYjsbPiU-39" value="empTpServico" style="rounded=0;whiteSpace=wrap;html=1;" parent="WIyWlLk6GJQsqaUBKTNV-1" vertex="1">
          <mxGeometry x="-2" y="1065" width="120" height="30" as="geometry" />
        </mxCell>
        <mxCell id="sWDT5Roi_d-fxYjsbPiU-40" value="" style="endArrow=classic;html=1;rounded=0;exitX=0;exitY=1;exitDx=0;exitDy=0;" parent="WIyWlLk6GJQsqaUBKTNV-1" source="sWDT5Roi_d-fxYjsbPiU-33" edge="1">
          <mxGeometry width="50" height="50" relative="1" as="geometry">
            <mxPoint x="258" y="1030" as="sourcePoint" />
            <mxPoint x="118" y="1080" as="targetPoint" />
            <Array as="points">
              <mxPoint x="258" y="1079" />
              <mxPoint x="238" y="1079" />
            </Array>
          </mxGeometry>
        </mxCell>
        <mxCell id="sWDT5Roi_d-fxYjsbPiU-41" value="empFuncionario" style="rounded=0;whiteSpace=wrap;html=1;" parent="WIyWlLk6GJQsqaUBKTNV-1" vertex="1">
          <mxGeometry x="76" y="1145" width="120" height="30" as="geometry" />
        </mxCell>
        <mxCell id="sWDT5Roi_d-fxYjsbPiU-42" value="" style="endArrow=classic;html=1;rounded=0;exitX=0.5;exitY=1;exitDx=0;exitDy=0;" parent="WIyWlLk6GJQsqaUBKTNV-1" edge="1">
          <mxGeometry width="50" height="50" relative="1" as="geometry">
            <mxPoint x="268" y="1030.0000000000005" as="sourcePoint" />
            <mxPoint x="198" y="1160" as="targetPoint" />
            <Array as="points">
              <mxPoint x="268" y="1120" />
              <mxPoint x="268" y="1160" />
            </Array>
          </mxGeometry>
        </mxCell>
        <mxCell id="sWDT5Roi_d-fxYjsbPiU-43" value="" style="endArrow=classic;html=1;rounded=0;exitX=0.5;exitY=1;exitDx=0;exitDy=0;" parent="WIyWlLk6GJQsqaUBKTNV-1" edge="1">
          <mxGeometry width="50" height="50" relative="1" as="geometry">
            <mxPoint x="285" y="1034.0000000000005" as="sourcePoint" />
            <mxPoint x="358" y="1160" as="targetPoint" />
            <Array as="points">
              <mxPoint x="285" y="1124" />
              <mxPoint x="285" y="1160" />
            </Array>
          </mxGeometry>
        </mxCell>
        <mxCell id="sWDT5Roi_d-fxYjsbPiU-44" value="" style="endArrow=classic;html=1;rounded=0;exitX=1;exitY=1;exitDx=0;exitDy=0;" parent="WIyWlLk6GJQsqaUBKTNV-1" source="sWDT5Roi_d-fxYjsbPiU-33" edge="1">
          <mxGeometry width="50" height="50" relative="1" as="geometry">
            <mxPoint x="298" y="1030" as="sourcePoint" />
            <mxPoint x="438" y="1080" as="targetPoint" />
            <Array as="points">
              <mxPoint x="298" y="1080" />
            </Array>
          </mxGeometry>
        </mxCell>
        <mxCell id="sWDT5Roi_d-fxYjsbPiU-45" value="empTpProduto" style="rounded=0;whiteSpace=wrap;html=1;" parent="WIyWlLk6GJQsqaUBKTNV-1" vertex="1">
          <mxGeometry x="439" y="1065" width="120" height="30" as="geometry" />
        </mxCell>
        <mxCell id="sWDT5Roi_d-fxYjsbPiU-46" value="empContato" style="rounded=0;whiteSpace=wrap;html=1;" parent="WIyWlLk6GJQsqaUBKTNV-1" vertex="1">
          <mxGeometry x="358" y="1145" width="120" height="30" as="geometry" />
        </mxCell>
        <mxCell id="sWDT5Roi_d-fxYjsbPiU-47" value="" style="endArrow=classic;html=1;rounded=0;entryX=1;entryY=0.5;entryDx=0;entryDy=0;exitX=0;exitY=0.5;exitDx=0;exitDy=0;" parent="WIyWlLk6GJQsqaUBKTNV-1" source="sWDT5Roi_d-fxYjsbPiU-33" target="sWDT5Roi_d-fxYjsbPiU-37" edge="1">
          <mxGeometry width="50" height="50" relative="1" as="geometry">
            <mxPoint x="230" y="999" as="sourcePoint" />
            <mxPoint x="238" y="999.47" as="targetPoint" />
            <Array as="points">
              <mxPoint x="180" y="1000" />
            </Array>
          </mxGeometry>
        </mxCell>
        <mxCell id="sWDT5Roi_d-fxYjsbPiU-50" value="" style="endArrow=classic;startArrow=classic;html=1;rounded=0;exitX=1;exitY=0.5;exitDx=0;exitDy=0;" parent="WIyWlLk6GJQsqaUBKTNV-1" source="9-WXtbgqV0mpOAtFdXMK-36" edge="1">
          <mxGeometry width="50" height="50" relative="1" as="geometry">
            <mxPoint x="160" y="740" as="sourcePoint" />
            <mxPoint x="210" y="430" as="targetPoint" />
            <Array as="points">
              <mxPoint x="320" y="638" />
              <mxPoint x="320" y="430" />
              <mxPoint x="280" y="430" />
            </Array>
          </mxGeometry>
        </mxCell>
        <mxCell id="sWDT5Roi_d-fxYjsbPiU-51" value="" style="endArrow=classic;startArrow=classic;html=1;rounded=0;entryX=0;entryY=0;entryDx=0;entryDy=0;" parent="WIyWlLk6GJQsqaUBKTNV-1" target="9XP385qsoO7HJBSUw2Q--15" edge="1">
          <mxGeometry width="50" height="50" relative="1" as="geometry">
            <mxPoint x="218" y="95" as="sourcePoint" />
            <mxPoint x="740" y="80" as="targetPoint" />
            <Array as="points">
              <mxPoint x="220" y="40" />
              <mxPoint x="740" y="40" />
            </Array>
          </mxGeometry>
        </mxCell>
        <mxCell id="sWDT5Roi_d-fxYjsbPiU-52" value="" style="endArrow=classic;startArrow=classic;html=1;rounded=0;exitX=1;exitY=0;exitDx=0;exitDy=0;entryX=0.5;entryY=0;entryDx=0;entryDy=0;" parent="WIyWlLk6GJQsqaUBKTNV-1" target="J_r5qr1-DXZXsxWHk4NO-12" edge="1">
          <mxGeometry width="50" height="50" relative="1" as="geometry">
            <mxPoint x="780" y="100" as="sourcePoint" />
            <mxPoint x="-400" as="targetPoint" />
            <Array as="points">
              <mxPoint x="779" y="39" />
              <mxPoint x="879" y="39" />
              <mxPoint x="879" y="-81" />
              <mxPoint x="-60" y="-81" />
              <mxPoint x="-400" y="-81" />
            </Array>
          </mxGeometry>
        </mxCell>
        <mxCell id="sWDT5Roi_d-fxYjsbPiU-53" value="" style="endArrow=classic;startArrow=classic;html=1;rounded=0;entryX=0;entryY=0.5;entryDx=0;entryDy=0;" parent="WIyWlLk6GJQsqaUBKTNV-1" target="9-WXtbgqV0mpOAtFdXMK-33" edge="1">
          <mxGeometry width="50" height="50" relative="1" as="geometry">
            <mxPoint x="233" y="128" as="sourcePoint" />
            <mxPoint x="440" y="198" as="targetPoint" />
            <Array as="points">
              <mxPoint x="233" y="240" />
            </Array>
          </mxGeometry>
        </mxCell>
        <mxCell id="sWDT5Roi_d-fxYjsbPiU-54" value="" style="endArrow=classic;startArrow=classic;html=1;rounded=0;entryX=0.284;entryY=0.902;entryDx=0;entryDy=0;entryPerimeter=0;exitX=0.384;exitY=0.137;exitDx=0;exitDy=0;exitPerimeter=0;" parent="WIyWlLk6GJQsqaUBKTNV-1" source="sWDT5Roi_d-fxYjsbPiU-17" edge="1">
          <mxGeometry width="50" height="50" relative="1" as="geometry">
            <mxPoint x="-406" y="890" as="sourcePoint" />
            <mxPoint x="-410.28" y="112.15999999999985" as="targetPoint" />
            <Array as="points">
              <mxPoint x="-466" y="890" />
              <mxPoint x="-536" y="890" />
              <mxPoint x="-713" y="890" />
              <mxPoint x="-713" y="510" />
              <mxPoint x="-713" y="110" />
              <mxPoint x="-563" y="110" />
            </Array>
          </mxGeometry>
        </mxCell>
        <mxCell id="sWDT5Roi_d-fxYjsbPiU-55" value="tblFiliada" style="rhombus;whiteSpace=wrap;html=1;" parent="WIyWlLk6GJQsqaUBKTNV-1" vertex="1">
          <mxGeometry x="839" y="999" width="80" height="80" as="geometry" />
        </mxCell>
        <mxCell id="sWDT5Roi_d-fxYjsbPiU-56" value="" style="endArrow=classic;html=1;rounded=0;" parent="WIyWlLk6GJQsqaUBKTNV-1" edge="1">
          <mxGeometry width="50" height="50" relative="1" as="geometry">
            <mxPoint x="877.29" y="999" as="sourcePoint" />
            <mxPoint x="877.29" y="919" as="targetPoint" />
          </mxGeometry>
        </mxCell>
        <mxCell id="sWDT5Roi_d-fxYjsbPiU-58" value="fldEmpresa" style="rounded=0;whiteSpace=wrap;html=1;" parent="WIyWlLk6GJQsqaUBKTNV-1" vertex="1">
          <mxGeometry x="817" y="890" width="120" height="30" as="geometry" />
        </mxCell>
        <mxCell id="sWDT5Roi_d-fxYjsbPiU-59" value="" style="endArrow=classic;html=1;rounded=0;" parent="WIyWlLk6GJQsqaUBKTNV-1" edge="1">
          <mxGeometry width="50" height="50" relative="1" as="geometry">
            <mxPoint x="878.29" y="1079" as="sourcePoint" />
            <mxPoint x="878.29" y="1159" as="targetPoint" />
          </mxGeometry>
        </mxCell>
        <mxCell id="sWDT5Roi_d-fxYjsbPiU-60" value="fldTelefone" style="rounded=0;whiteSpace=wrap;html=1;" parent="WIyWlLk6GJQsqaUBKTNV-1" vertex="1">
          <mxGeometry x="818" y="1160" width="120" height="30" as="geometry" />
        </mxCell>
        <mxCell id="sWDT5Roi_d-fxYjsbPiU-62" value="" style="endArrow=classic;html=1;rounded=0;exitX=1;exitY=0.5;exitDx=0;exitDy=0;" parent="WIyWlLk6GJQsqaUBKTNV-1" edge="1">
          <mxGeometry width="50" height="50" relative="1" as="geometry">
            <mxPoint x="920" y="1038.29" as="sourcePoint" />
            <mxPoint x="1040" y="1038.29" as="targetPoint" />
          </mxGeometry>
        </mxCell>
        <mxCell id="sWDT5Roi_d-fxYjsbPiU-63" value="fldNome" style="rounded=0;whiteSpace=wrap;html=1;" parent="WIyWlLk6GJQsqaUBKTNV-1" vertex="1">
          <mxGeometry x="1039" y="1023" width="120" height="30" as="geometry" />
        </mxCell>
        <mxCell id="sWDT5Roi_d-fxYjsbPiU-64" value="" style="endArrow=classic;html=1;rounded=0;entryX=1;entryY=0.5;entryDx=0;entryDy=0;exitX=0;exitY=0.5;exitDx=0;exitDy=0;" parent="WIyWlLk6GJQsqaUBKTNV-1" edge="1">
          <mxGeometry width="50" height="50" relative="1" as="geometry">
            <mxPoint x="839" y="1039" as="sourcePoint" />
            <mxPoint x="719" y="1039" as="targetPoint" />
            <Array as="points">
              <mxPoint x="781" y="1039" />
            </Array>
          </mxGeometry>
        </mxCell>
        <mxCell id="sWDT5Roi_d-fxYjsbPiU-65" value="fldLocal" style="rounded=0;whiteSpace=wrap;html=1;" parent="WIyWlLk6GJQsqaUBKTNV-1" vertex="1">
          <mxGeometry x="597" y="1010" width="120" height="30" as="geometry" />
        </mxCell>
        <mxCell id="sWDT5Roi_d-fxYjsbPiU-66" value="" style="endArrow=classic;html=1;rounded=0;" parent="WIyWlLk6GJQsqaUBKTNV-1" edge="1">
          <mxGeometry width="50" height="50" relative="1" as="geometry">
            <mxPoint x="888.29" y="1009" as="sourcePoint" />
            <mxPoint x="998" y="960" as="targetPoint" />
            <Array as="points">
              <mxPoint x="888" y="960" />
            </Array>
          </mxGeometry>
        </mxCell>
        <mxCell id="sWDT5Roi_d-fxYjsbPiU-67" value="fldEmail" style="rounded=0;whiteSpace=wrap;html=1;" parent="WIyWlLk6GJQsqaUBKTNV-1" vertex="1">
          <mxGeometry x="999" y="944" width="120" height="30" as="geometry" />
        </mxCell>
        <mxCell id="sWDT5Roi_d-fxYjsbPiU-68" value="" style="endArrow=classic;html=1;rounded=0;" parent="WIyWlLk6GJQsqaUBKTNV-1" edge="1">
          <mxGeometry width="50" height="50" relative="1" as="geometry">
            <mxPoint x="854.29" y="1024.5" as="sourcePoint" />
            <mxPoint x="718" y="960" as="targetPoint" />
            <Array as="points">
              <mxPoint x="854" y="960" />
            </Array>
          </mxGeometry>
        </mxCell>
        <mxCell id="sWDT5Roi_d-fxYjsbPiU-69" value="fldProduto" style="rounded=0;whiteSpace=wrap;html=1;" parent="WIyWlLk6GJQsqaUBKTNV-1" vertex="1">
          <mxGeometry x="597" y="944" width="120" height="30" as="geometry" />
        </mxCell>
        <mxCell id="sWDT5Roi_d-fxYjsbPiU-70" value="" style="endArrow=classic;startArrow=classic;html=1;rounded=0;entryX=0.5;entryY=1;entryDx=0;entryDy=0;exitX=1;exitY=0.5;exitDx=0;exitDy=0;" parent="WIyWlLk6GJQsqaUBKTNV-1" source="sWDT5Roi_d-fxYjsbPiU-17" target="sWDT5Roi_d-fxYjsbPiU-55" edge="1">
          <mxGeometry width="50" height="50" relative="1" as="geometry">
            <mxPoint x="-380" y="960" as="sourcePoint" />
            <mxPoint x="840" y="1080" as="targetPoint" />
            <Array as="points">
              <mxPoint x="-360" y="1040" />
              <mxPoint x="-120" y="1040" />
              <mxPoint x="-120" y="1240" />
              <mxPoint x="560" y="1240" />
              <mxPoint x="760" y="1240" />
              <mxPoint x="760" y="1080" />
            </Array>
          </mxGeometry>
        </mxCell>
        <mxCell id="sWDT5Roi_d-fxYjsbPiU-71" value="" style="endArrow=classic;startArrow=classic;html=1;rounded=0;entryX=0.5;entryY=1;entryDx=0;entryDy=0;exitX=0.5;exitY=0;exitDx=0;exitDy=0;" parent="WIyWlLk6GJQsqaUBKTNV-1" source="sWDT5Roi_d-fxYjsbPiU-33" target="J_r5qr1-DXZXsxWHk4NO-7" edge="1">
          <mxGeometry width="50" height="50" relative="1" as="geometry">
            <mxPoint x="330" y="960" as="sourcePoint" />
            <mxPoint x="720" y="450" as="targetPoint" />
            <Array as="points">
              <mxPoint x="360" y="960" />
              <mxPoint x="360" y="880" />
              <mxPoint x="360" y="440" />
              <mxPoint x="559" y="440" />
            </Array>
          </mxGeometry>
        </mxCell>
        <mxCell id="frhvmPGYdNNYVX2BP0Ag-0" value="" style="endArrow=classic;startArrow=classic;html=1;rounded=0;entryX=0;entryY=0.5;entryDx=0;entryDy=0;exitX=1;exitY=1;exitDx=0;exitDy=0;" parent="WIyWlLk6GJQsqaUBKTNV-1" source="J_r5qr1-DXZXsxWHk4NO-12" edge="1">
          <mxGeometry width="50" height="50" relative="1" as="geometry">
            <mxPoint x="-310" y="120" as="sourcePoint" />
            <mxPoint x="559" y="278" as="targetPoint" />
            <Array as="points">
              <mxPoint x="-200" y="100" />
              <mxPoint x="-200" y="360" />
              <mxPoint x="480" y="360" />
              <mxPoint x="480" y="280" />
            </Array>
          </mxGeometry>
        </mxCell>
        <mxCell id="frhvmPGYdNNYVX2BP0Ag-1" value="" style="endArrow=classic;startArrow=classic;html=1;rounded=0;exitX=1;exitY=1;exitDx=0;exitDy=0;" parent="WIyWlLk6GJQsqaUBKTNV-1" source="9-WXtbgqV0mpOAtFdXMK-7" edge="1">
          <mxGeometry width="50" height="50" relative="1" as="geometry">
            <mxPoint x="-40" y="560" as="sourcePoint" />
            <mxPoint x="256" y="981" as="targetPoint" />
            <Array as="points">
              <mxPoint x="-40" y="540" />
              <mxPoint x="-40" y="981" />
            </Array>
          </mxGeometry>
        </mxCell>
        <mxCell id="frhvmPGYdNNYVX2BP0Ag-2" value="" style="endArrow=classic;startArrow=classic;html=1;rounded=0;entryX=0.5;entryY=1;entryDx=0;entryDy=0;" parent="WIyWlLk6GJQsqaUBKTNV-1" target="9-WXtbgqV0mpOAtFdXMK-28" edge="1">
          <mxGeometry width="50" height="50" relative="1" as="geometry">
            <mxPoint x="-380" y="500" as="sourcePoint" />
            <mxPoint x="100" y="455" as="targetPoint" />
            <Array as="points">
              <mxPoint y="500" />
              <mxPoint y="440" />
            </Array>
          </mxGeometry>
        </mxCell>
        <mxCell id="frhvmPGYdNNYVX2BP0Ag-3" value="" style="endArrow=classic;startArrow=classic;html=1;rounded=0;" parent="WIyWlLk6GJQsqaUBKTNV-1" edge="1">
          <mxGeometry width="50" height="50" relative="1" as="geometry">
            <mxPoint x="840" y="1040" as="sourcePoint" />
            <mxPoint x="741" y="663" as="targetPoint" />
            <Array as="points">
              <mxPoint x="840" y="1000" />
              <mxPoint x="580" y="1000" />
              <mxPoint x="580" y="840" />
              <mxPoint x="480" y="840" />
              <mxPoint x="480" y="663" />
            </Array>
          </mxGeometry>
        </mxCell>
      </root>
    </mxGraphModel>
  </diagram>
  <diagram id="fwc4EbF5_uUtJyk13aCE" name="Página-2">
    <mxGraphModel dx="1354" dy="600" grid="1" gridSize="10" guides="1" tooltips="1" connect="1" arrows="1" fold="1" page="1" pageScale="1" pageWidth="827" pageHeight="1169" math="0" shadow="0">
      <root>
        <mxCell id="0" />
        <mxCell id="1" parent="0" />
      </root>
    </mxGraphModel>
  </diagram>
</mxfile>
